<?xml version="1.0" encoding="UTF-8"?>
<svg version="1.1" xmlns="http://www.w3.org/2000/svg" width="332" height="283">
<path d="M0 0 C109.56 0 219.12 0 332 0 C332 93.39 332 186.78 332 283 C222.44 283 112.88 283 0 283 C0 189.61 0 96.22 0 0 Z " fill="#F3F4F6" transform="translate(0,0)"/>
<path d="M0 0 C3.21954645 2.53453657 4.70432435 4.11297305 6 8 C6.39308695 12.79566077 6.48270142 15.06907584 4.25 19.375 C0.93193717 23.2460733 0.93193717 23.2460733 -2 24 C-6.4584174 24 -8.44950078 23.44508447 -11.9375 20.625 C-14.67035983 16.88767845 -14.63563946 13.06651516 -14.43359375 8.56640625 C-13.85165708 5.1219703 -12.60243008 3.29626184 -10 1 C-6.78070427 -0.60964787 -3.48112288 -0.60686242 0 0 Z " fill="#EDEEF0" transform="translate(152,37)"/>
<path d="M0 0 C1.17369141 -0.02513672 1.17369141 -0.02513672 2.37109375 -0.05078125 C5.12549324 0.40583043 5.85145226 1.1381569 7.5625 3.3125 C7.90307617 5.3972168 7.90307617 5.3972168 7.85546875 7.76171875 C7.84580078 8.60927734 7.83613281 9.45683594 7.82617188 10.33007812 C7.80103516 11.21115234 7.77589844 12.09222656 7.75 13 C7.72969727 14.33901367 7.72969727 14.33901367 7.70898438 15.70507812 C7.67364079 17.90816166 7.62430493 20.11002582 7.5625 22.3125 C8.8825 21.9825 10.2025 21.6525 11.5625 21.3125 C11.2325 21.9725 10.9025 22.6325 10.5625 23.3125 C4.8125 23.4375 4.8125 23.4375 2.5625 22.3125 C1.9025 22.6425 1.2425 22.9725 0.5625 23.3125 C-2.9375 23.5 -2.9375 23.5 -6.4375 23.3125 C-8.4375 21.3125 -8.4375 21.3125 -8.75 18.375 C-8.4375 15.3125 -8.4375 15.3125 -7.1796875 13.7265625 C-5.25469299 12.16412301 -3.58755739 11.42973287 -1.25 10.625 C-0.17685547 10.24794922 -0.17685547 10.24794922 0.91796875 9.86328125 C1.46066406 9.68152344 2.00335938 9.49976563 2.5625 9.3125 C2.5625 7.0025 2.5625 4.6925 2.5625 2.3125 C-0.4075 1.8175 -0.4075 1.8175 -3.4375 1.3125 C-3.1075 2.9625 -2.7775 4.6125 -2.4375 6.3125 C-4.0875 6.6425 -5.7375 6.9725 -7.4375 7.3125 C-6.59681688 1.9881736 -5.57908286 0.02748317 0 0 Z " fill="#585959" transform="translate(193.4375,36.6875)"/>
<path d="M0 0 C3.21954645 2.53453657 4.70432435 4.11297305 6 8 C6.39308695 12.79566077 6.48270142 15.06907584 4.25 19.375 C0.93193717 23.2460733 0.93193717 23.2460733 -2 24 C-6.4584174 24 -8.44950078 23.44508447 -11.9375 20.625 C-14.67035983 16.88767845 -14.63563946 13.06651516 -14.43359375 8.56640625 C-13.85165708 5.1219703 -12.60243008 3.29626184 -10 1 C-6.78070427 -0.60964787 -3.48112288 -0.60686242 0 0 Z M-9 3 C-10.82806936 8.44905291 -10.91254573 14.76426296 -8.75 20.0625 C-7.13467771 22.06407682 -7.13467771 22.06407682 -5.0625 23.0625 C-2.84477592 23.18939596 -2.84477592 23.18939596 -0.8984375 21.46875 C1.72377776 18.05879107 1.49990456 15.69349076 1.4375 11.4375 C1.44458984 10.76525391 1.45167969 10.09300781 1.45898438 9.40039062 C1.42138383 6.48779447 1.33264308 4.47330359 -0.3671875 2.0546875 C-3.67507071 -0.08198347 -6.29946166 0.29946166 -9 3 Z " fill="#575758" transform="translate(152,37)"/>
<path d="M0 0 C-2.6739124 0.89130413 -5.23723823 1.47731534 -8 2 C-8.95020416 4.239835 -8.95020416 4.239835 -9 7 C-5.85100911 10.9616337 -1.73837735 13.79983005 2.328125 16.765625 C4.95244034 18.70320361 4.95244034 18.70320361 5.30859375 20.92578125 C5.44210796 23.39781703 5.4475606 25.56186036 5 28 C2.02296171 30.90615643 0.12952739 31.8823409 -4 32.3125 C-7.03149962 31.99671879 -10.00597712 31.57029007 -13 31 C-13 27.7 -13 24.4 -13 21 C-12.34 22.32 -11.68 23.64 -11 25 C-9.34610594 27.7564901 -8.59491601 28.8066523 -5.5 29.8125 C-2.8708247 30.17154939 -2.8708247 30.17154939 0 29 C0.94607807 26.25038489 0.94607807 26.25038489 1 23 C-2.0915883 19.01085381 -6.241825 16.24313595 -10.328125 13.33203125 C-12 12 -12 12 -13 10 C-13.3125 7.125 -13.3125 7.125 -13 4 C-8.81233357 -1.16478859 -6.37531571 -1.06255262 0 0 Z " fill="#4B4B4B" transform="translate(127,29)"/>
<path d="M0 0 C1.17369141 -0.02513672 1.17369141 -0.02513672 2.37109375 -0.05078125 C5.12549324 0.40583043 5.85145226 1.1381569 7.5625 3.3125 C7.90307617 5.3972168 7.90307617 5.3972168 7.85546875 7.76171875 C7.84580078 8.60927734 7.83613281 9.45683594 7.82617188 10.33007812 C7.80103516 11.21115234 7.77589844 12.09222656 7.75 13 C7.73646484 13.89267578 7.72292969 14.78535156 7.70898438 15.70507812 C7.67364079 17.90816166 7.62430493 20.11002582 7.5625 22.3125 C8.8825 21.9825 10.2025 21.6525 11.5625 21.3125 C11.2325 21.9725 10.9025 22.6325 10.5625 23.3125 C8.5825 23.3125 6.6025 23.3125 4.5625 23.3125 C4.5625 19.0225 4.5625 14.7325 4.5625 10.3125 C3.9025 9.9825 3.2425 9.6525 2.5625 9.3125 C2.5625 7.0025 2.5625 4.6925 2.5625 2.3125 C-0.4075 1.8175 -0.4075 1.8175 -3.4375 1.3125 C-3.1075 2.9625 -2.7775 4.6125 -2.4375 6.3125 C-4.0875 6.6425 -5.7375 6.9725 -7.4375 7.3125 C-6.59681688 1.9881736 -5.57908286 0.02748317 0 0 Z " fill="#484848" transform="translate(193.4375,36.6875)"/>
<path d="M0 0 C1.98 0 3.96 0 6 0 C6.103125 0.804375 6.20625 1.60875 6.3125 2.4375 C7.15100373 6.78247386 8.52821659 10.83457527 10 15 C10.66 15 11.32 15 12 15 C12.12375 14.278125 12.2475 13.55625 12.375 12.8125 C12.9904931 10.04278106 13.88444374 7.6029646 15 5 C16.14680101 8.44040303 15.87124738 9.00270384 14.56640625 12.23046875 C14.0878418 13.43413086 14.0878418 13.43413086 13.59960938 14.66210938 C13.25736328 15.49548828 12.91511719 16.32886719 12.5625 17.1875 C12.22412109 18.03248047 11.88574219 18.87746094 11.53710938 19.74804688 C10.69974448 21.83556216 9.85379803 23.91916409 9 26 C8 23 8 23 7.66015625 20.89453125 C6.69305101 16.65414674 5.0452983 12.72132266 3.4375 8.6875 C3.10814453 7.85154297 2.77878906 7.01558594 2.43945312 6.15429688 C1.63001123 4.10136454 0.81676543 2.05002714 0 0 Z " fill="#585858" transform="translate(162,38)"/>
<path d="M0 0 C2.5 0.25 2.5 0.25 4.5 2.25 C4.84490322 6.30261287 4.80163882 7.79754176 2.5 11.25 C0 11.5625 0 11.5625 -2.5 11.25 C-4.5 9.25 -4.5 9.25 -4.75 5.75 C-4.46177779 1.71488904 -4.15174939 0.41517494 0 0 Z " fill="#D1D3D5" transform="translate(275.5,168.75)"/>
<path d="M0 0 C6.0546875 -0.1953125 6.0546875 -0.1953125 8 0 C8.66 0.66 9.32 1.32 10 2 C9.625 3.9375 9.625 3.9375 9 6 C8.7763932 8.9254644 8.7763932 8.9254644 10 11 C9.4225 10.690625 8.845 10.38125 8.25 10.0625 C6.15705816 9.07416636 4.25464725 8.4831387 2 8 C2 8.99 2 9.98 2 11 C1.34 11 0.68 11 0 11 C0 7.37 0 3.74 0 0 Z " fill="#B5B8B9" transform="translate(159,140)"/>
<path d="M0 0 C2.05078125 0.03255208 4.1015625 0.06510417 6.15234375 0.09765625 C6.17922526 1.74340191 6.19868498 3.38927038 6.21484375 5.03515625 C6.22644531 5.95167969 6.23804688 6.86820313 6.25 7.8125 C6.15234375 10.09765625 6.15234375 10.09765625 5.15234375 11.09765625 C2.81936942 11.13858562 0.4852915 11.14007348 -1.84765625 11.09765625 C-1.51765625 10.43765625 -1.18765625 9.77765625 -0.84765625 9.09765625 C0.80234375 9.42765625 2.45234375 9.75765625 4.15234375 10.09765625 C4.15234375 9.43765625 4.15234375 8.77765625 4.15234375 8.09765625 C3.18296875 7.95328125 2.21359375 7.80890625 1.21484375 7.66015625 C-1.84765625 7.09765625 -1.84765625 7.09765625 -2.84765625 6.09765625 C-2.97265625 3.59765625 -2.97265625 3.59765625 -2.84765625 1.09765625 C-1.84765625 0.09765625 -1.84765625 0.09765625 0 0 Z " fill="#B5B7B9" transform="translate(241.84765625,171.90234375)"/>
<path d="M0 0 C2.05078125 0.03255208 4.1015625 0.06510417 6.15234375 0.09765625 C6.17922526 1.74340191 6.19868498 3.38927038 6.21484375 5.03515625 C6.22644531 5.95167969 6.23804688 6.86820313 6.25 7.8125 C6.15234375 10.09765625 6.15234375 10.09765625 5.15234375 11.09765625 C2.81936942 11.13858562 0.4852915 11.14007348 -1.84765625 11.09765625 C-1.51765625 10.43765625 -1.18765625 9.77765625 -0.84765625 9.09765625 C0.80234375 9.42765625 2.45234375 9.75765625 4.15234375 10.09765625 C4.15234375 9.43765625 4.15234375 8.77765625 4.15234375 8.09765625 C3.18296875 7.95328125 2.21359375 7.80890625 1.21484375 7.66015625 C-1.84765625 7.09765625 -1.84765625 7.09765625 -2.84765625 6.09765625 C-2.97265625 3.59765625 -2.97265625 3.59765625 -2.84765625 1.09765625 C-1.84765625 0.09765625 -1.84765625 0.09765625 0 0 Z " fill="#B5B7B9" transform="translate(167.84765625,171.90234375)"/>
<path d="M0 0 C7.875 0.875 7.875 0.875 9 2 C9.125 5 9.125 5 9 8 C8 9 8 9 4.9375 9.0625 C3.968125 9.041875 2.99875 9.02125 2 9 C2 9.99 2 10.98 2 12 C1.34 12 0.68 12 0 12 C0 8.04 0 4.08 0 0 Z " fill="#B4B6B8" transform="translate(107,171)"/>
<path d="M0 0 C0.66 0 1.32 0 2 0 C2 3.96 2 7.92 2 12 C-1.375 12.125 -1.375 12.125 -5 12 C-5.66 11.34 -6.32 10.68 -7 10 C-6.625 6.875 -6.625 6.875 -6 4 C-4.35 3.67 -2.7 3.34 -1 3 C-0.67 2.01 -0.34 1.02 0 0 Z " fill="#B4B7B9" transform="translate(78,168)"/>
<path d="M0 0 C1 1 1 1 1.1875 3.4375 C1 6 1 6 -1 8 C-3.625 8.125 -3.625 8.125 -6 8 C-6 8.99 -6 9.98 -6 11 C-6.66 11 -7.32 11 -8 11 C-8 7.37 -8 3.74 -8 0 C-4.69676014 -1.10107995 -3.29495231 -0.86709271 0 0 Z " fill="#B4B6B8" transform="translate(206,172)"/>
<path d="M0 0 C0.125 3.375 0.125 3.375 0 7 C-2 9 -2 9 -5.125 9.125 C-6.548125 9.063125 -6.548125 9.063125 -8 9 C-8.3125 5.6875 -8.3125 5.6875 -8 2 C-4.90510149 -0.67666898 -3.95197232 -1.31732411 0 0 Z " fill="#EBECEE" transform="translate(197,49)"/>
<path d="M0 0 C0.05607422 1.30324219 0.05607422 1.30324219 0.11328125 2.6328125 C0.52448963 11.28042899 0.52448963 11.28042899 4 19 C1.19027419 18.69895795 -0.05669289 17.95275592 -2.25 16.125 C-4.76314698 11.63723754 -4.90249909 7.04911655 -4 2 C-1 0 -1 0 0 0 Z " fill="#474747" transform="translate(142,41)"/>
<path d="M0 0 C0.94875 0.04125 1.8975 0.0825 2.875 0.125 C2.875 0.455 2.875 0.785 2.875 1.125 C1.225 1.455 -0.425 1.785 -2.125 2.125 C-2.125 2.785 -2.125 3.445 -2.125 4.125 C-0.475 4.455 1.175 4.785 2.875 5.125 C3.25718767 6.78114657 3.58895102 8.44957024 3.875 10.125 C2.875 11.125 2.875 11.125 -0.0625 11.375 C-1.073125 11.2925 -2.08375 11.21 -3.125 11.125 C-5.42663882 7.67254176 -5.46990322 6.17761287 -5.125 2.125 C-3.125 0.125 -3.125 0.125 0 0 Z " fill="#B3B6B8" transform="translate(300.125,168.875)"/>
<path d="M0 0 C4.875 0.875 4.875 0.875 6 2 C6.04092937 4.33297433 6.04241723 6.66705225 6 9 C3.69 9 1.38 9 -1 9 C-1.5625 7.0625 -1.5625 7.0625 -2 5 C-1 4 -1 4 1.5625 3.9375 C2.7690625 3.9684375 2.7690625 3.9684375 4 4 C4 3.34 4 2.68 4 2 C2.35 2 0.7 2 -1 2 C-0.67 1.34 -0.34 0.68 0 0 Z " fill="#C1C3C5" transform="translate(48,171)"/>
<path d="M0 0 C3.53571429 0.53571429 3.53571429 0.53571429 5 2 C5.04092937 4.33297433 5.04241723 6.66705225 5 9 C2.69 9 0.38 9 -2 9 C-2 7.68 -2 6.36 -2 5 C-0.35 4.67 1.3 4.34 3 4 C3 3.34 3 2.68 3 2 C1.35 2 -0.3 2 -2 2 C-1.34 1.34 -0.68 0.68 0 0 Z " fill="#BFC2C4" transform="translate(175,142)"/>
<path d="M0 0 C3.53571429 0.53571429 3.53571429 0.53571429 5 2 C5.04092937 4.33297433 5.04241723 6.66705225 5 9 C2.69 9 0.38 9 -2 9 C-2 7.68 -2 6.36 -2 5 C-0.35 4.67 1.3 4.34 3 4 C3 3.34 3 2.68 3 2 C1.35 2 -0.3 2 -2 2 C-1.34 1.34 -0.68 0.68 0 0 Z " fill="#BFC2C4" transform="translate(126,142)"/>
<path d="M0 0 C0.598125 0.20625 1.19625 0.4125 1.8125 0.625 C2.1425 1.945 2.4725 3.265 2.8125 4.625 C0.8325 4.625 -1.1475 4.625 -3.1875 4.625 C-2.8575 5.285 -2.5275 5.945 -2.1875 6.625 C-0.5375 6.625 1.1125 6.625 2.8125 6.625 C2.4825 7.285 2.1525 7.945 1.8125 8.625 C-0.5625 8.75 -0.5625 8.75 -3.1875 8.625 C-5.1875 6.625 -5.1875 6.625 -5.5 4.125 C-5.396875 3.3 -5.29375 2.475 -5.1875 1.625 C-2.1875 -0.375 -2.1875 -0.375 0 0 Z " fill="#ABAEB0" transform="translate(125.1875,171.375)"/>
<path d="M0 0 C-0.33 0.66 -0.66 1.32 -1 2 C-2.2065625 1.9690625 -2.2065625 1.9690625 -3.4375 1.9375 C-5.93354885 1.70366379 -5.93354885 1.70366379 -7 3 C-7.04063832 4.66617115 -7.042721 6.33388095 -7 8 C-5.35 8.33 -3.7 8.66 -2 9 C-1.67 7.68 -1.34 6.36 -1 5 C-0.34 5 0.32 5 1 5 C1.042721 6.66611905 1.04063832 8.33382885 1 10 C0 11 0 11 -3.375 11.25 C-7 11 -7 11 -8.9375 9.8125 C-10.38718434 7.33950907 -10.42317323 5.82115488 -10 3 C-7.65127184 -1.00665392 -4.23309225 -0.239609 0 0 Z " fill="#B3B5B7" transform="translate(33,169)"/>
<path d="M0 0 C5.625 -0.25 5.625 -0.25 9 2 C9.1875 5.625 9.1875 5.625 9 9 C8.34 9 7.68 9 7 9 C6.67 7.02 6.34 5.04 6 3 C5.01 3 4.02 3 3 3 C2.67 4.98 2.34 6.96 2 9 C1.34 9 0.68 9 0 9 C0 6.03 0 3.06 0 0 Z " fill="#BABCBE" transform="translate(216,142)"/>
<path d="M0 0 C1.134375 0.020625 2.26875 0.04125 3.4375 0.0625 C3.4375 0.3925 3.4375 0.7225 3.4375 1.0625 C2.2309375 1.248125 2.2309375 1.248125 1 1.4375 C0.154375 1.64375 -0.69125 1.85 -1.5625 2.0625 C-1.8925 2.7225 -2.2225 3.3825 -2.5625 4.0625 C-1.593125 4.31 -0.62375 4.5575 0.375 4.8125 C3.4375 6.0625 3.4375 6.0625 4.375 8.125 C4.395625 8.764375 4.41625 9.40375 4.4375 10.0625 C3.4375 11.0625 3.4375 11.0625 -0.125 11.125 C-1.259375 11.104375 -2.39375 11.08375 -3.5625 11.0625 C-3.8925 10.4025 -4.2225 9.7425 -4.5625 9.0625 C-2.5825 9.0625 -0.6025 9.0625 1.4375 9.0625 C1.4375 8.4025 1.4375 7.7425 1.4375 7.0625 C0.633125 6.815 -0.17125 6.5675 -1 6.3125 C-3.5625 5.0625 -3.5625 5.0625 -4.4375 3 C-4.47875 2.360625 -4.52 1.72125 -4.5625 1.0625 C-3.5625 0.0625 -3.5625 0.0625 0 0 Z " fill="#B2B4B6" transform="translate(189.5625,168.9375)"/>
<path d="M0 0 C2.31 0 4.62 0 7 0 C7.75 1.6875 7.75 1.6875 8 4 C6.0625 6.75 6.0625 6.75 4 9 C5.32 9.66 6.64 10.32 8 11 C5.36 11 2.72 11 0 11 C1.30208333 9.53515625 2.60416667 8.0703125 3.90625 6.60546875 C5.28151241 4.910552 5.28151241 4.910552 5 2 C3.35 2 1.7 2 0 2 C0 1.34 0 0.68 0 0 Z " fill="#B0B2B5" transform="translate(259,169)"/>
<path d="M0 0 C0.66 1.32 1.32 2.64 2 4 C3.91168609 7.42091196 4.84793819 7.94845362 8.6875 9.25 C10.3271875 9.62125 10.3271875 9.62125 12 10 C12 10.33 12 10.66 12 11 C7.86425173 11.0984702 4.06368679 10.77403558 0 10 C0 6.7 0 3.4 0 0 Z " fill="#6F6F70" transform="translate(114,50)"/>
<path d="M0 0 C0.66 0 1.32 0 2 0 C2.92844389 4.33273814 2.92844389 7.66726186 2 12 C3.32 11.67 4.64 11.34 6 11 C6 11.66 6 12.32 6 13 C4.33388095 13.042721 2.66617115 13.04063832 1 13 C0 12 0 12 -0.09765625 9.27734375 C-0.08605469 8.17519531 -0.07445312 7.07304687 -0.0625 5.9375 C-0.05347656 4.83277344 -0.04445312 3.72804687 -0.03515625 2.58984375 C-0.02355469 1.73519531 -0.01195312 0.88054687 0 0 Z " fill="#CECFD0" transform="translate(192,245)"/>
<path d="M0 0 C0.66 0 1.32 0 2 0 C2.92844389 4.33273814 2.92844389 7.66726186 2 12 C3.32 11.67 4.64 11.34 6 11 C6 11.66 6 12.32 6 13 C4.33388095 13.042721 2.66617115 13.04063832 1 13 C0 12 0 12 -0.09765625 9.27734375 C-0.08605469 8.17519531 -0.07445312 7.07304687 -0.0625 5.9375 C-0.05347656 4.83277344 -0.04445312 3.72804687 -0.03515625 2.58984375 C-0.02355469 1.73519531 -0.01195312 0.88054687 0 0 Z " fill="#CECFD0" transform="translate(138,245)"/>
<path d="M0 0 C0.99 0.33 1.98 0.66 3 1 C2.34 1 1.68 1 1 1 C1 1.66 1 2.32 1 3 C1.66 3 2.32 3 3 3 C3 3.66 3 4.32 3 5 C2.34 5 1.68 5 1 5 C1 7.31 1 9.62 1 12 C0.34 12 -0.32 12 -1 12 C-1.2226746 10.56465159 -1.42761906 9.12654475 -1.625 7.6875 C-1.74101562 6.88699219 -1.85703125 6.08648437 -1.9765625 5.26171875 C-2 3 -2 3 0 0 Z " fill="#B9BBBD" transform="translate(137,139)"/>
<path d="M0 0 C1.67542976 0.28604898 3.34385343 0.61781233 5 1 C4.67 2.32 4.34 3.64 4 5 C2.68 5.33 1.36 5.66 0 6 C-0.38218767 4.34385343 -0.71395102 2.67542976 -1 1 C-0.67 0.67 -0.34 0.34 0 0 Z " fill="#EEEFF1" transform="translate(110,173)"/>
<path d="M0 0 C0.66 0.33 1.32 0.66 2 1 C1.67 1.33 1.34 1.66 1 2 C2.98 2 4.96 2 7 2 C7 2.66 7 3.32 7 4 C4.69 4 2.38 4 0 4 C0 4.66 0 5.32 0 6 C1.98 6 3.96 6 6 6 C6 6.66 6 7.32 6 8 C3.125 8.1875 3.125 8.1875 0 8 C-2 5 -2 5 -1.6875 2.875 C-1 1 -1 1 0 0 Z " fill="#B0B2B5" transform="translate(205,143)"/>
<path d="M0 0 C0.78375 0.04125 1.5675 0.0825 2.375 0.125 C1.055 0.455 -0.265 0.785 -1.625 1.125 C-1.295 2.775 -0.965 4.425 -0.625 6.125 C-2.275 6.455 -3.925 6.785 -5.625 7.125 C-4.53409091 0.21590909 -4.53409091 0.21590909 0 0 Z " fill="#5D5D5D" transform="translate(191.625,36.875)"/>
<path d="M0 0 C1.65 0 3.3 0 5 0 C5.5625 1.9375 5.5625 1.9375 6 4 C5 5 5 5 2.4375 5.0625 C1.2309375 5.0315625 1.2309375 5.0315625 0 5 C0 3.35 0 1.7 0 0 Z " fill="#F0F1F3" transform="translate(161,141)"/>
<path d="M0 0 C1.32 0 2.64 0 4 0 C4 1.65 4 3.3 4 5 C2.68 5.33 1.36 5.66 0 6 C-0.38218767 4.34385343 -0.71395102 2.67542976 -1 1 C-0.67 0.67 -0.34 0.34 0 0 Z " fill="#F1F2F4" transform="translate(201,173)"/>
<path d="M0 0 C1.32 0 2.64 0 4 0 C4 1.65 4 3.3 4 5 C2.68 5.33 1.36 5.66 0 6 C-0.38218767 4.34385343 -0.71395102 2.67542976 -1 1 C-0.67 0.67 -0.34 0.34 0 0 Z " fill="#F1F2F4" transform="translate(74,173)"/>
<path d="M0 0 C2.0625 0.4375 2.0625 0.4375 4 1 C4 1.66 4 2.32 4 3 C3.34 3 2.68 3 2 3 C2 4.98 2 6.96 2 9 C2.66 9.33 3.32 9.66 4 10 C2.68 9.67 1.36 9.34 0 9 C-0.87890625 2.84765625 -0.87890625 2.84765625 -1 1 C-0.67 0.67 -0.34 0.34 0 0 Z " fill="#B9BCBE" transform="translate(144,141)"/>
<path d="M0 0 C1.32 0 2.64 0 4 0 C4 1.65 4 3.3 4 5 C2.35 5 0.7 5 -1 5 C-0.67 3.35 -0.34 1.7 0 0 Z " fill="#F1F2F4" transform="translate(242,173)"/>
<path d="M0 0 C1.65 0 3.3 0 5 0 C5 0.66 5 1.32 5 2 C4.01 2.495 4.01 2.495 3 3 C2.34227572 6.02934491 2.34227572 6.02934491 2 9 C1.34 9 0.68 9 0 9 C0 6.03 0 3.06 0 0 Z " fill="#BABCBE" transform="translate(211,171)"/>
<path d="M0 0 C1.32 0 2.64 0 4 0 C4 1.65 4 3.3 4 5 C2.35 5 0.7 5 -1 5 C-0.67 3.35 -0.34 1.7 0 0 Z " fill="#F1F2F4" transform="translate(168,173)"/>
<path d="M0 0 C0 0.99 0 1.98 0 3 C-1.98 3 -3.96 3 -6 3 C-6 2.01 -6 1.02 -6 0 C-3.50907189 -1.24546405 -2.58919267 -0.7767578 0 0 Z " fill="#CED0D2" transform="translate(127,172)"/>
<path d="M0 0 C2.0625 0.4375 2.0625 0.4375 4 1 C4.33 2.32 4.66 3.64 5 5 C3.35 5 1.7 5 0 5 C-0.5625 3.0625 -0.5625 3.0625 -1 1 C-0.67 0.67 -0.34 0.34 0 0 Z " fill="#606060" transform="translate(163,63)"/>
<path d="M0 0 C1.98 0.495 1.98 0.495 4 1 C4 2.32 4 3.64 4 5 C2.35 5 0.7 5 -1 5 C-0.67 3.35 -0.34 1.7 0 0 Z " fill="#464646" transform="translate(210,55)"/>
<path d="M0 0 C0.99 0.33 1.98 0.66 3 1 C3 2.32 3 3.64 3 5 C1.35 4.67 -0.3 4.34 -2 4 C-1.34 2.68 -0.68 1.36 0 0 Z " fill="#505051" transform="translate(152,27)"/>
<path d="M0 0 C1.65 0 3.3 0 5 0 C5 1.32 5 2.64 5 4 C3.35 3.67 1.7 3.34 0 3 C0 2.01 0 1.02 0 0 Z " fill="#ECEDEF" transform="translate(297,175)"/>
<path d="M0 0 C1.65 0.33 3.3 0.66 5 1 C5 1.99 5 2.98 5 4 C3.02 4 1.04 4 -1 4 C-0.67 2.68 -0.34 1.36 0 0 Z " fill="#D5D7D9" transform="translate(206,142)"/>
<path d="M0 0 C2.31 0 4.62 0 7 0 C7 0.66 7 1.32 7 2 C6.34 2 5.68 2 5 2 C4.34 3.32 3.68 4.64 3 6 C3 4.68 3 3.36 3 2 C2.01 1.67 1.02 1.34 0 1 C0 0.67 0 0.34 0 0 Z " fill="#79797A" transform="translate(175,37)"/>
<path d="M0 0 C1.65 0 3.3 0 5 0 C4.67 1.32 4.34 2.64 4 4 C2.68 4 1.36 4 0 4 C0 2.68 0 1.36 0 0 Z " fill="#4E4E4E" transform="translate(141,28)"/>
<path d="M0 0 C0 2.97 0 5.94 0 9 C-1.77706209 6.33440687 -2.87548273 3.9719385 -4 1 C-1 0 -1 0 0 0 Z " fill="#626363" transform="translate(131,29)"/>
</svg>
